/vscmnt/brussel_pixiu_data/_data_brussel/112/vsc11236/PredSimResults/SUBJ10_gait1422_tracking/SUBJ10_gait1422_11454268.mot
version=1
nRows=4
nColumns=50
inDegrees=yes
endheader
                time	         pelvis_tilt	         pelvis_list	     pelvis_rotation	           pelvis_tx	           pelvis_ty	           pelvis_tz	       hip_flexion_r	     hip_adduction_r	      hip_rotation_r	        knee_angle_r	       ankle_angle_r	         mtp_angle_r	       hip_flexion_l	     hip_adduction_l	      hip_rotation_l	        knee_angle_l	       ankle_angle_l	         mtp_angle_l	    lumbar_extension	      lumbar_bending	     lumbar_rotation	 ercspn_r/activation	 intobl_r/activation	 extobl_r/activation	    abd_r/activation	    add_r/activation	hamstrings_r/activation	bifemsh_r/activation	glut_max_r/activation	iliopsoas_r/activation	rect_fem_r/activation	  vasti_r/activation	gastroc_r/activation	 soleus_r/activation	tib_ant_r/activation	 ercspn_l/activation	 intobl_l/activation	 extobl_l/activation	    abd_l/activation	    add_l/activation	hamstrings_l/activation	bifemsh_l/activation	glut_max_l/activation	iliopsoas_l/activation	rect_fem_l/activation	  vasti_l/activation	gastroc_l/activation	 soleus_l/activation	tib_ant_l/activation	
          0.00000000	         -2.91533298	          2.07454281	          4.83152605	          0.00000000	          0.80492149	         -0.00618221	         37.00894119	         -1.99291461	        -11.88818809	        -15.82345391	         -0.61238647	          0.20473515	        -19.73937902	          6.29316173	         -3.06841953	         -3.92993723	         14.46946719	         21.76307878	         -2.43374412	         -2.12909724	         -8.00442732	          0.02138971	          0.06711936	          0.07556818	          0.01683424	          0.04057281	          0.05342585	          0.34903474	          0.07684354	          0.07252475	          0.01071464	          0.07589674	          0.01023519	          0.01000179	          0.15553379	          0.03634597	          0.02294307	          0.01000477	          0.08629527	          0.01100482	          0.16006169	          0.59382516	          0.01191913	          0.60826006	          0.01000242	          0.01000086	          0.10685883	          0.44711501	          0.02959760	
          0.01137310	         -3.27009704	          1.63631552	          4.64632768	          0.01638090	          0.80346921	         -0.00566760	         36.29511900	         -1.18318559	        -10.90537151	        -15.86256495	         -0.76372334	          0.19106001	        -19.58605103	          5.82352957	         -4.01582022	         -5.48609796	         13.58718374	         23.89960961	         -1.76576589	         -1.52341441	         -7.59062755	          0.01798204	          0.16143472	          0.07847207	          0.01415197	          0.03410996	          0.04491294	          0.51148504	          0.06459910	          0.18680141	          0.01000138	          0.06380296	          0.01189937	          0.01189536	          0.21903036	          0.03055572	          0.01931414	          0.08261326	          0.07254584	          0.01000443	          0.15660596	          0.49921103	          0.01002250	          0.51133728	          0.01189601	          0.01188913	          0.19046576	          0.52524475	          0.02488133	
          0.02274621	         -3.56291995	          1.16408667	          4.45327631	          0.03302353	          0.80263903	         -0.00508753	         35.45723988	         -0.31035278	         -9.92705974	        -15.80182027	         -1.08241456	          0.20334296	        -19.38465136	          5.27303898	         -4.91270386	         -7.21606328	         12.33885476	         26.23858098	         -1.15452598	         -0.85798554	         -7.17759710	          0.01511727	          0.13591750	          0.06613267	          0.01189712	          0.02935289	          0.03775643	          0.42998373	          0.05430585	          0.16901645	          0.04148510	          0.08633397	          0.01000355	          0.01000049	          0.19625673	          0.02568760	          0.01647113	          0.07285672	          0.06098675	          0.01000645	          0.19156558	          0.43323227	          0.01001289	          0.42985848	          0.01000287	          0.01000065	          0.17620159	          0.49309512	          0.02091659	
          0.03411931	         -3.77791670	          0.53592131	          4.21012056	          0.04960641	          0.80258572	         -0.00440201	         34.74961551	          0.69105865	         -9.06822268	        -15.90784307	         -2.21177224	          0.20987258	        -19.10796267	          4.52825240	         -5.79776467	         -9.14744775	         10.79561182	         28.68066977	         -0.65428121	          0.01708521	         -6.75025836	          0.01270993	          0.12319913	          0.05559788	          0.01000214	          0.02834065	          0.03174096	          0.36147137	          0.04565391	          0.14208457	          0.03487521	          0.07257760	          0.01280877	          0.02960107	          0.17527164	          0.02159728	          0.01384784	          0.06124875	          0.05126928	          0.01000358	          0.22887685	          0.36420297	          0.01627969	          0.36136259	          0.01001099	          0.01000519	          0.21510444	          0.43479775	          0.01758361	
